<svg width="35" height="19" viewBox="0 0 35 19" fill="none" xmlns="http://www.w3.org/2000/svg">
<path d="M6.32077 14.2459L2.24286 14.2459C1.00416 14.2459 7.79031e-08 13.2436 5.17196e-08 12.0072L4.30995e-09 9.7686L6.32077 9.7686V14.2459Z" fill="#ED1C24"/>
<path d="M6.32077 9.7686L4.30995e-09 9.7686L0 5.08781L6.32077 5.08781V9.7686Z" fill="white"/>
<path d="M6.32077 5.08781L0 5.08781L5.17196e-08 2.84918C2.5536e-08 1.61281 1.00416 0.610537 2.24286 0.610537L6.32077 0.610535V5.08781Z" fill="#ED1C24"/>
<path d="M6.5589 7.24505C6.5589 7.35744 6.65018 7.44856 6.76279 7.44856H9.39288C10.3898 7.44856 11.2622 6.47168 11.2622 5.00639C11.2622 3.5411 10.3898 2.56426 9.39288 2.56426H6.76279C6.65018 2.56426 6.5589 2.65537 6.5589 2.76777V7.24505ZM5.0974 14.2866C4.87218 14.2866 4.6896 14.1043 4.6896 13.8796V1.22108C4.6896 0.883885 4.96347 0.610538 5.30129 0.610538H9.48189C11.5292 0.610538 13.1315 2.34933 13.1315 5.00639C13.1315 7.66345 11.5292 9.40228 9.48189 9.40228H6.76279C6.65018 9.40228 6.5589 9.4934 6.5589 9.60579V13.8796C6.5589 14.1043 6.37632 14.2866 6.1511 14.2866H5.0974Z" fill="black"/>
<path d="M4.69179 13.9211C4.71127 14.1127 4.86381 14.265 5.05578 14.2844L5.0974 14.2866H6.1511L6.19274 14.2844C6.3847 14.265 6.53725 14.1127 6.55673 13.9211L6.5589 13.8796V9.60579C6.5589 9.50043 6.63911 9.41375 6.7419 9.40331L6.76279 9.40228H9.48189L9.57753 9.40093C11.5789 9.34763 13.1315 7.62193 13.1315 5.00639C13.1314 2.39088 11.5789 0.66502 9.57753 0.61173L9.48189 0.610538L9.48195 0C11.9537 3.48997e-05 13.743 2.10572 13.7431 5.00633C13.7431 7.90696 11.9538 10.0128 9.48195 10.0129H7.1706V13.8796C7.17058 14.4416 6.71414 14.8971 6.15112 14.8972H5.0974C4.53437 14.8972 4.07794 14.4416 4.07792 13.8796V1.22108C4.07792 0.546694 4.62564 0 5.30129 0V0.610538L5.26983 0.611333C4.94663 0.627676 4.6896 0.894416 4.6896 1.22108V13.8796L4.69179 13.9211ZM10.6506 5.00633C10.6505 3.74445 9.93198 3.17477 9.39295 3.17472H7.1706V6.83794H9.39295L9.39288 7.44856H6.76279L6.7419 7.44749C6.64595 7.43774 6.56965 7.36161 6.55991 7.26583L6.5589 7.24505V2.76777C6.55894 2.66245 6.63914 2.57581 6.7419 2.56537L6.76279 2.56426H9.39288C10.3898 2.56426 11.2622 3.5411 11.2622 5.00639L11.2597 5.14227C11.2076 6.53173 10.3587 7.44851 9.39288 7.44856L9.39295 6.83794C9.93198 6.83789 10.6506 6.26827 10.6506 5.00633ZM9.48195 0L9.48189 0.610538H5.30129V0H9.48195Z" fill="#FFF4EC"/>
<path d="M17.7021 14.2866C17.5026 14.2866 17.3324 14.1425 17.2998 13.946L17.1782 13.2121H17.0892C16.9112 13.4661 16.6975 13.681 16.4483 13.8568C16.021 14.1694 15.3445 14.482 14.4188 14.482C12.4605 14.482 11.2143 13.2316 11.2143 11.4537C11.2143 9.50001 12.3715 8.23009 14.8638 8.23009H16.8934C17.0016 8.23009 17.0892 8.14262 17.0892 8.03472C17.0892 6.76481 16.3771 5.98332 15.2199 5.98332C14.0571 5.98332 13.5143 6.66368 13.3745 7.23088C13.3577 7.29929 13.2984 7.35092 13.2279 7.35092C12.3273 7.35092 11.5827 6.54498 12.086 5.79958C12.6784 4.92233 13.7567 4.32265 15.2199 4.32265C17.5521 4.32265 18.8695 5.76841 18.8695 8.03472V14.0831C18.8695 14.1955 18.7782 14.2866 18.6656 14.2866H17.7021ZM17.0892 10.1838V9.99658C17.0892 9.88419 16.9979 9.79307 16.8853 9.79307H14.9529C13.5998 9.79307 12.9945 10.4769 12.9945 11.356C12.9945 12.2352 13.5286 12.8213 14.5968 12.8213C16.2169 12.8213 17.0892 11.8445 17.0892 10.1838Z" fill="black"/>
<path d="M14.8638 8.23009L14.8639 7.6196H16.4423C16.3878 7.31704 16.2746 7.09573 16.136 6.94367C15.9469 6.73605 15.6541 6.59389 15.2199 6.59388C14.3544 6.59388 14.0448 7.06693 13.9685 7.37673C13.9396 7.49392 13.8812 7.60601 13.7992 7.70029C14.1326 7.64635 14.4881 7.6196 14.8639 7.6196L14.8638 8.23009L14.748 8.23093C12.3356 8.26985 11.2143 9.53054 11.2143 11.4537L11.2153 11.5366C11.2528 13.2428 12.452 14.4433 14.3275 14.481L14.4188 14.482C15.3445 14.482 16.021 14.1694 16.4483 13.8568C16.6975 13.681 16.9112 13.4661 17.0892 13.2121H17.1782L17.2998 13.946C17.3324 14.1425 17.5026 14.2866 17.7021 14.2866H18.6656L18.6863 14.2856C18.7823 14.2759 18.8586 14.1998 18.8683 14.104L18.8695 14.0831V8.03472C18.8695 5.80381 17.5929 4.36795 15.3284 4.32365L15.2199 4.32265C13.7567 4.32265 12.6784 4.92233 12.086 5.79958C11.5985 6.52168 12.282 7.30052 13.1439 7.34851L13.2279 7.35092C13.2984 7.35092 13.3577 7.29929 13.3745 7.23088C13.5143 6.66368 14.0571 5.98332 15.2199 5.98332L15.327 5.98553C16.4209 6.03256 17.0892 6.80448 17.0892 8.03472L17.0882 8.05464C17.0789 8.14664 17.0056 8.21983 16.9134 8.22914L16.8934 8.23009H14.8638ZM17.0892 10.1838L17.0866 10.3374C17.034 11.9045 16.1662 12.8213 14.5968 12.8213L14.5969 12.2108C15.2815 12.2107 15.7248 12.0079 16.0024 11.7097C16.257 11.4363 16.4363 11.0132 16.471 10.4036H14.9529C14.3741 10.4036 14.0457 10.5496 13.8699 10.7037C13.7028 10.8501 13.6063 11.062 13.6063 11.356C13.6063 11.6716 13.6993 11.8634 13.8191 11.9784C13.9414 12.0958 14.1722 12.2108 14.5969 12.2108L14.5968 12.8213L14.4983 12.8197C13.5282 12.7857 13.0275 12.2444 12.9962 11.4376L12.9945 11.356C12.9946 10.5044 13.5627 9.83596 14.8282 9.79503L14.9529 9.79307H16.8853C16.9979 9.79307 17.0892 9.88419 17.0892 9.99658V10.1838ZM19.4812 14.0831C19.4812 14.5327 19.116 14.8971 18.6656 14.8972H17.7021C17.3158 14.8971 16.9735 14.681 16.8009 14.3554C16.2813 14.733 15.4835 15.0925 14.4189 15.0925C13.3075 15.0925 12.3457 14.7355 11.6579 14.0744C10.9688 13.4119 10.6026 12.4896 10.6026 11.4537C10.6026 10.3564 10.9305 9.37006 11.6862 8.66359C12.023 8.34867 12.4273 8.10618 12.892 7.9344C12.3971 7.85503 11.947 7.60378 11.6525 7.23582C11.2705 6.75837 11.1602 6.07835 11.5789 5.45827C12.3 4.39032 13.582 3.71212 15.2199 3.71212C16.5153 3.71212 17.6006 4.11697 18.3602 4.90576C19.1164 5.691 19.4812 6.78539 19.4812 8.03477V14.0831Z" fill="#FFF4EC"/>
<path d="M22.2069 11.9422C23.634 11.9422 24.7043 10.7699 24.7043 9.01158C24.7043 7.25323 23.634 6.081 22.2069 6.081C20.7798 6.081 19.7095 7.25323 19.7095 9.01158C19.7095 10.7699 20.7798 11.9422 22.2069 11.9422ZM22.2961 18.3894L19.884 18.3876C19.6589 18.3874 19.4765 18.2052 19.4765 17.9805V17.5081C19.4765 17.0226 19.871 16.6292 20.3573 16.6296L22.2961 16.6311C23.7232 16.6311 24.7043 15.5565 24.7043 14.0913V12.5283H24.6151C24.187 12.9972 23.5448 13.7005 21.8501 13.7005C19.6382 13.7005 17.9257 11.8445 17.9257 9.01158C17.9257 6.17869 19.6382 4.32265 21.8501 4.32265C23.5805 4.32265 24.3118 5.20183 24.6151 5.59257H24.7043L24.8544 4.68827C24.8707 4.59005 24.9558 4.51803 25.0555 4.51803H26.2842C26.3968 4.51803 26.4881 4.60914 26.4881 4.72154V14.0913C26.4881 16.6506 24.9718 18.3894 22.2961 18.3894Z" fill="black"/>
<path d="M26.4881 14.0913V4.72154C26.4881 4.61614 26.4078 4.52939 26.305 4.51901L26.2842 4.51803L26.2842 3.90748C26.7347 3.90751 27.0998 4.27196 27.0998 4.72153V14.0913C27.0998 15.4894 26.6842 16.7267 25.8404 17.6191C24.9918 18.5166 23.7716 19 22.2961 19L19.8834 18.998C19.3207 18.9975 18.8647 18.5421 18.8647 17.9804V17.508C18.8648 16.6853 19.5334 16.0185 20.3577 16.0191L22.2961 16.0205C23.3478 16.0204 24.0926 15.258 24.0926 14.0913V13.7735C24.0633 13.7908 24.0335 13.8081 24.003 13.8249C23.4752 14.1155 22.7868 14.3111 21.8501 14.3111C19.2168 14.3111 17.314 12.0917 17.314 9.01159C17.314 5.93143 19.2168 3.71213 21.8501 3.71212C22.8261 3.71212 23.553 3.96207 24.0886 4.29125C24.1614 4.33599 24.2299 4.382 24.2947 4.42838C24.4138 4.1198 24.713 3.9075 25.0555 3.90748L25.0555 4.51803C24.9558 4.51803 24.8707 4.59005 24.8544 4.68827L24.7043 5.59257H24.6151L24.5531 5.51392C24.2166 5.09537 23.4723 4.32265 21.8501 4.32265C19.6382 4.32265 17.9257 6.17869 17.9257 9.01158L17.9269 9.14375C17.9785 11.8583 19.6194 13.6431 21.7468 13.6991L21.8501 13.7005C23.5448 13.7005 24.187 12.9972 24.6151 12.5283H24.7043V14.0913C24.7043 15.5565 23.7232 16.6311 22.2961 16.6311L20.3573 16.6296C19.871 16.6292 19.4765 17.0226 19.4765 17.5081V17.9805C19.4765 18.2052 19.6589 18.3874 19.884 18.3876L22.2961 18.3894C24.93 18.3894 26.4404 16.7046 26.4869 14.2107L26.4881 14.0913ZM24.0926 9.01159C24.0926 7.50639 23.2177 6.69148 22.2069 6.69147C21.1962 6.69147 20.3213 7.50637 20.3213 9.01159C20.3213 10.5168 21.1962 11.3317 22.2069 11.3317L22.2069 11.9422L22.1402 11.9413C20.7688 11.9059 19.7427 10.7791 19.7104 9.09367L19.7095 9.01158C19.7095 7.25323 20.7798 6.081 22.2069 6.081L22.2734 6.08192C23.6671 6.11779 24.7043 7.28067 24.7043 9.01158L24.7035 9.09367C24.6707 10.8063 23.6116 11.9421 22.2069 11.9422L22.2069 11.3317C23.2177 11.3317 24.0926 10.5168 24.0926 9.01159ZM26.2842 3.90748L26.2842 4.51803H25.0555L25.0555 3.90748H26.2842Z" fill="#FFF4EC"/>
<path d="M29.9377 12.7237C31.4509 12.7237 32.6081 11.4342 32.6081 9.40233C32.6081 7.37046 31.4509 6.081 29.9377 6.081C28.4244 6.081 27.2673 7.37046 27.2673 9.40233C27.2673 11.4342 28.4244 12.7237 29.9377 12.7237ZM29.9377 14.482C27.3563 14.482 25.487 12.4306 25.487 9.40233C25.487 6.37406 27.3563 4.32265 29.9377 4.32265C32.5191 4.32265 34.3884 6.37406 34.3884 9.40233C34.3884 12.4306 32.5191 14.482 29.9377 14.482Z" fill="black"/>
<path d="M34.3884 9.40233C34.3884 6.37406 32.5191 4.32265 29.9377 4.32265C27.3563 4.32265 25.487 6.37406 25.487 9.40233C25.487 12.4306 27.3563 14.482 29.9377 14.482C32.5191 14.482 34.3884 12.4306 34.3884 9.40233ZM31.9963 9.40232C31.9963 8.4994 31.7397 7.81543 31.3693 7.36918C31.0043 6.92951 30.5078 6.69147 29.9376 6.69147C29.3675 6.69148 28.871 6.9295 28.506 7.36918C28.1355 7.81543 27.879 8.4994 27.879 9.40232C27.879 10.3052 28.1355 10.9892 28.506 11.4355C28.871 11.8751 29.3675 12.1132 29.9376 12.1132L29.9377 12.7237L29.867 12.7227C28.412 12.6838 27.303 11.4428 27.2681 9.49712L27.2673 9.40233C27.2673 7.37046 28.4244 6.081 29.9377 6.081C31.4509 6.081 32.6081 7.37046 32.6081 9.40233C32.6081 11.4342 31.4509 12.7237 29.9377 12.7237L29.9376 12.1132C30.5078 12.1132 31.0043 11.8751 31.3693 11.4355C31.7397 10.9892 31.9963 10.3052 31.9963 9.40232ZM35 9.40232C35 11.041 34.4933 12.4622 33.5893 13.4823C32.681 14.5072 31.4002 15.0925 29.9376 15.0925C28.4751 15.0925 27.1945 14.5071 26.2862 13.4823C25.3822 12.4622 24.8753 11.041 24.8753 9.40232C24.8753 7.76364 25.3822 6.3424 26.2862 5.32233C27.1945 4.29751 28.4751 3.71212 29.9376 3.71212C31.4002 3.71212 32.681 4.29746 33.5893 5.32233C34.4933 6.3424 35 7.76365 35 9.40232Z" fill="#FFF4EC"/>
</svg>
